# xmcd
#
# Track frame offsets: 
#        150
#        10550
#        24750
#        37302
#        47786
#        59153
#        71840
#        84428
#        96837
#        109503
#        123067
#        135778
#        146854
#        159721
#        171442
#        187832
#        200448
#
# Disc length: 2844 seconds
#
# Revision: 0
# Processed by: cddbd v1.5.2PL0 Copyright (c) Steve Scherf et al.
# Submitted via: ExactAudioCopy v0.95b3
#
DISCID=e50b1a11
DTITLE=Cuff Links  - Tracy  1969 
DYEAR=1900
DGENRE=
TTITLE0=Tracy
TTITLE1=All the Young Women
TTITLE2=Heather
TTITLE3=Early In the Morning
TTITLE4=Put a Little Love In Your Heart
TTITLE5=Lay a Little Love on Me
TTITLE6=When Julie Comes Around
TTITLE7=I Remember
TTITLE8=Sweet Caroline
TTITLE9=Where Do You Go?
TTITLE10=Sally Ann (You're such a Pretty Baby)
TTITLE11=Run Sally Run (Bonus)
TTITLE12=Robin's World (Bonus)
TTITLE13=Thank You Pretty Baby (Bonus)
TTITLE14=The Kiss (Bonus)
TTITLE15=All Because of You (Bonus)
TTITLE16=Wake Up Judy (Bonus)
EXTD=
EXTT0=
EXTT1=
EXTT2=
EXTT3=
EXTT4=
EXTT5=
EXTT6=
EXTT7=
EXTT8=
EXTT9=
EXTT10=
EXTT11=
EXTT12=
EXTT13=
EXTT14=
EXTT15=
EXTT16=
PLAYORDER=
